<svg xmlns="http://www.w3.org/2000/svg" width="60" height="60" viewBox="0 0 60 60"><defs><style>.cls-1{fill-rule:evenodd}</style></defs><path id="icon2.svg" class="cls-1" d="M2151 2884a30 30 0 1 0 30 30 30.037 30.037 0 0 0-30-30zm0 58a28 28 0 1 1 28-28 28.031 28.031 0 0 1-28 28zm1-31.98v-10.14a1 1 0 0 0-2 0v10.14a4 4 0 0 0-2.86 2.86H2140a1 1 0 0 0 0 2h7.14a3.993 3.993 0 1 0 4.86-4.86zm-1 5.86a2 2 0 1 1 2-2 2.006 2.006 0 0 1-2 2zm0-22a1 1 0 0 0 1-1v-1a1 1 0 0 0-2 0v1a1 1 0 0 0 1 1zm0 40a1 1 0 0 0-1 1v1a1 1 0 0 0 2 0v-1a1 1 0 0 0-1-1zm22-21h-1a1 1 0 0 0 0 2h1a1 1 0 0 0 0-2zm-43 0h-1a1 1 0 0 0 0 2h1a1 1 0 0 0 0-2zm35.85-15.26l-.71.7a1.008 1.008 0 0 0 0 1.42 1.014 1.014 0 0 0 1.42 0l.7-.71a1 1 0 1 0-1.41-1.41zm-30.41 30.4l-.7.71a1 1 0 0 0 0 1.41.978.978 0 0 0 1.41 0l.71-.7a1 1 0 0 0-1.42-1.42zm31.12 0a1 1 0 0 0-1.42 1.42l.71.7a.978.978 0 0 0 1.41 0 1 1 0 0 0 0-1.41zm-30.41-30.4a.978.978 0 0 0-1.41 0 1 1 0 0 0 0 1.41l.7.71a1.042 1.042 0 0 0 .71.29 1.024 1.024 0 0 0 .71-.29 1.008 1.008 0 0 0 0-1.42z" transform="translate(-2121 -2884)"/></svg>