<svg xmlns="http://www.w3.org/2000/svg" width="54.94" height="56.94" viewBox="0 0 54.94 56.94"><defs><style>.cls-1{fill-rule:evenodd}</style></defs><path id="icon1.svg" class="cls-1" d="M2178.89 2826.01a1.006 1.006 0 0 0-.82-.69l-7.77-1.09-3.46-6.79a1.039 1.039 0 0 0-1.78 0l-3.47 6.79-7.77 1.09a.993.993 0 0 0-.81.69 1.009 1.009 0 0 0 .27 1.03l5.6 5.28-1.32 7.44a.992.992 0 0 0 .39.98.979.979 0 0 0 1.04.08l6.96-3.53 6.96 3.53a.883.883 0 0 0 .45.11.967.967 0 0 0 .59-.19.992.992 0 0 0 .39-.98l-1.32-7.44 5.6-5.28a1.009 1.009 0 0 0 .27-1.03zm-7.63 5.22a.982.982 0 0 0-.3.9l1.06 6-5.62-2.86a1.03 1.03 0 0 0-.45-.11 1 1 0 0 0-.45.11l-5.63 2.86 1.07-6a1.008 1.008 0 0 0-.3-.9l-4.48-4.22 6.22-.87a1.023 1.023 0 0 0 .75-.54l2.82-5.51 2.81 5.51a1.023 1.023 0 0 0 .75.54l6.22.87zm-2.32-35.21h-17.97a1.005 1.005 0 0 0 0 2.01h17.97a1.005 1.005 0 0 0 0-2.01zm0 14.03h-17.97a1 1 0 0 0 0 2h17.97a1 1 0 0 0 0-2zm-24.39-18.79a.986.986 0 0 0-1.4.1l-6.24 7.3-3.82-2.87a1 1 0 0 0-1.2 1.6l4.57 3.44a1 1 0 0 0 .59.2.978.978 0 0 0 .76-.35l6.85-8.01a1 1 0 0 0-.11-1.41zm0 14.02a.987.987 0 0 0-1.4.11l-6.24 7.3-3.82-2.87a1 1 0 0 0-1.2 1.6l4.57 3.43a.936.936 0 0 0 .59.2.978.978 0 0 0 .76-.35l6.85-8.01a1 1 0 0 0-.11-1.41zm-1.4 15.13l-6.24 7.3-3.82-2.87a1 1 0 0 0-1.2 1.6l4.57 3.44a1 1 0 0 0 .59.2.978.978 0 0 0 .76-.35l6.85-8.01a1.011 1.011 0 0 0-.11-1.42.987.987 0 0 0-1.4.11zm7.82 15.68h-14.81a10.181 10.181 0 0 1-10.16-10.19v-29.7a10.181 10.181 0 0 1 10.16-10.19h29.61a10.189 10.189 0 0 1 10.17 10.19v23.94a1 1 0 1 0 1.99 0v-23.94a12.189 12.189 0 0 0-12.16-12.2h-29.61a12.189 12.189 0 0 0-12.16 12.2v29.7a12.187 12.187 0 0 0 12.16 12.19h14.81a1 1 0 0 0 0-2z" transform="translate(-2124 -2784)"/></svg>